<?xml version="1.0" encoding="UTF-8"?>
<svg width="150px" height="150px" viewBox="0 0 150 150" version="1.1" xmlns="http://www.w3.org/2000/svg" xmlns:xlink="http://www.w3.org/1999/xlink">
    <title>services-icon</title>
    <g id="client-portal" stroke="none" stroke-width="1" fill="none" fill-rule="evenodd">
        <g id="header-and-desktop" transform="translate(-1102.000000, -721.000000)" stroke="#979797">
            <g id="services-icon" transform="translate(1102.000000, 721.000000)">
                <path d="M75,1 C82.4394955,1 89.6226273,2.09760666 96.395642,4.14014991 C95.3085086,5.55085432 94.3632294,7.07531322 93.5802768,8.69280934 C87.5236711,6.93973041 81.1215754,6 74.5,6 C55.5842473,6 38.4592473,13.6671237 26.0631855,26.0631855 C13.6671237,38.4592473 6,55.5842473 6,74.5 C6,93.4157527 13.6671237,110.540753 26.0631855,122.936815 C38.4592473,135.332876 55.5842473,143 74.5,143 C93.4157527,143 110.540753,135.332876 122.936815,122.936815 C135.332876,110.540753 143,93.4157527 143,74.5 C143,61.9014671 139.598573,50.0974369 133.665647,39.9567984 C135.17045,38.6991308 136.530723,37.274458 137.718848,35.7114528 C144.867211,47.0954731 149,60.5651368 149,75 C149,95.4345357 140.717268,113.934536 127.325902,127.325902 C113.934536,140.717268 95.4345357,149 75,149 C54.5654643,149 36.0654643,140.717268 22.6740982,127.325902 C9.28273213,113.934536 1,95.4345357 1,75 C1,54.5654643 9.28273213,36.0654643 22.6740982,22.6740982 C36.0654643,9.28273213 54.5654643,1 75,1 Z" id="outer-ring" stroke-width="2" fill="#D8D8D8"></path>
                <circle id="center-oval" stroke-width="3" cx="74.5" cy="74.5" r="36"></circle>
                <circle id="status-oval" stroke-width="2" fill="#D8D8D8" cx="117" cy="20" r="13"></circle>
            </g>
        </g>
    </g>
</svg>