<?xml version="1.0" standalone="no"?>
<!DOCTYPE svg PUBLIC "-//W3C//DTD SVG 20010904//EN"
 "http://www.w3.org/TR/2001/REC-SVG-20010904/DTD/svg10.dtd">
<svg version="1.0" xmlns="http://www.w3.org/2000/svg"
 width="512.000000pt" height="512.000000pt" viewBox="0 0 512.000000 512.000000"
 preserveAspectRatio="xMidYMid meet">
<defs>
    <linearGradient xmlns="http://www.w3.org/2000/svg" x1="51.1573337%" y1="20.2213434%" x2="47.4607404%" y2="83.6481879%" 
    id="linearGradient-dark">
            <stop stop-color="#213350" offset="0%"/>
            <stop stop-color="#071328" offset="100%"/>
        </linearGradient>
        <linearGradient xmlns="http://www.w3.org/2000/svg" x1="51.1573337%" y1="20.2213434%" x2="47.4607404%" y2="83.6481879%" 
        id="linearGradient-light">
            <stop stop-color="#90a0c4" offset="0%"/>
            <stop stop-color="#6d85b0" offset="100%"/>
        </linearGradient>
</defs>
<style>
g {
    fill:url(#linearGradient-dark);
    stroke: none;
    }
@media (prefers-color-scheme: dark) {
    g {
        <!-- for high contrast light is for dark, and Vv -->
        fill:url(#linearGradient-light); 
    }
    }
</style>
<g transform="translate(0.000000,512.000000) scale(0.100000,-0.100000)">
<path d="M1184 4949 c-141 -11 -339 -45 -453 -79 -198 -59 -313 -117 -563
-282 l-168 -110 0 -1758 c0 -1661 1 -1758 18 -1772 31 -29 96 -57 177 -79 71
-18 124 -22 450 -29 501 -12 585 -26 935 -153 660 -241 1349 -431 1820 -504
156 -24 452 -24 610 0 404 62 659 175 982 436 l128 103 0 1849 0 1849 -39 0
c-51 0 -190 -27 -521 -100 -498 -111 -707 -142 -955 -142 -344 0 -544 75
-1000 375 -342 226 -529 314 -766 365 -179 39 -413 50 -655 31z m427 -204 c96
-17 200 -50 279 -90 30 -15 56 -28 58 -30 2 -2 -146 -316 -151 -322 -2 -1 -41
14 -88 32 -171 69 -363 85 -454 38 -82 -43 -125 -114 -125 -206 0 -108 55
-180 228 -298 231 -158 327 -294 355 -497 36 -274 -86 -508 -328 -626 -245
-121 -622 -124 -858 -7 l-72 36 -3 193 -2 192 67 -34 c316 -158 649 -151 743
16 18 32 23 56 22 102 -2 116 -42 171 -243 327 -257 199 -349 350 -349 570 0
100 26 216 67 292 15 29 64 88 108 133 91 93 177 140 311 173 99 25 313 28
435 6z m1974 -1322 c-3 -21 -20 -103 -38 -183 l-32 -145 -247 -3 c-224 -2
-247 -4 -252 -20 -3 -9 -82 -381 -176 -827 -94 -445 -173 -818 -176 -827 -5
-16 -24 -18 -215 -18 -153 0 -209 3 -209 12 0 6 79 385 175 841 96 456 175
830 175 833 0 2 -110 4 -245 4 -147 0 -245 4 -245 9 0 12 69 331 75 349 3 9
155 12 711 12 l706 0 -7 -37z m874 -977 c51 -14 129 -43 172 -64 l79 -37 -75
-159 c-41 -88 -76 -161 -78 -162 -1 -1 -42 14 -90 33 -124 48 -223 66 -326 61
-99 -5 -150 -26 -200 -84 -42 -48 -51 -73 -51 -147 1 -113 45 -172 225 -297
138 -95 206 -158 263 -243 74 -112 97 -194 96 -347 0 -102 -5 -137 -23 -190
-56 -163 -157 -274 -314 -349 -241 -115 -620 -116 -850 -2 l-72 36 -3 193 -2
193 62 -32 c99 -50 238 -96 328 -110 227 -33 411 38 438 169 13 58 0 141 -27
185 -28 46 -109 121 -235 218 -137 106 -215 191 -266 294 -110 218 -71 488 96
665 73 77 133 119 221 154 112 46 183 56 368 52 145 -3 184 -8 264 -30z"/>
</g>
</svg>
