<?xml version="1.0" encoding="utf-8"?>
<!-- Generator: Adobe Illustrator 25.0.0, SVG Export Plug-In . SVG Version: 6.00 Build 0)  -->
<svg version="1.1" id="Layer_1" xmlns="http://www.w3.org/2000/svg" xmlns:xlink="http://www.w3.org/1999/xlink" x="0px" y="0px"
	 viewBox="0 0 1000 1000" style="enable-background:new 0 0 1000 1000;" xml:space="preserve">
<style type="text/css">
	.st0{fill:#6D6E71;}
	.st1{fill:#122745;}
	.st2{fill:#3C4F71;}
</style>
<g>
	<g>
		<path class="st0" d="M282.19,772.74c0,2.94-0.59,4.91-1.77,5.89c-1.18,0.98-3.29,1.47-6.33,1.47h-20.24
			c-3.34,0-5.53-0.55-6.59-1.66c-1.06-1.1-1.58-3.3-1.58-6.59l6.77-1.25v3.68h22.89v-7.14h-20.16c-3.04,0-5.13-0.47-6.25-1.4
			c-1.28-1.03-1.91-3.02-1.91-5.96v-3.46c0-2.94,0.64-4.93,1.91-5.96c1.13-0.93,3.21-1.4,6.25-1.4h18.47c3.14,0,5.29,0.49,6.44,1.47
			c1.15,0.98,1.73,2.99,1.73,6.03l-6.55,1.4v-3.31h-21.41v6.55h20.24c3.04,0,5.15,0.48,6.33,1.44c1.18,0.96,1.77,2.93,1.77,5.92
			V772.74z"/>
		<path class="st0" d="M353.94,772.74c0,2.94-0.59,4.91-1.77,5.89c-1.18,0.98-3.29,1.47-6.33,1.47h-24.06
			c-3.04,0-5.15-0.48-6.33-1.44c-1.18-0.96-1.77-2.93-1.77-5.92v-16.41c0-2.99,0.59-4.97,1.77-5.92c1.18-0.96,3.29-1.44,6.33-1.44
			h24.06c3.04,0,5.15,0.48,6.33,1.44c1.18,0.96,1.77,2.93,1.77,5.92V772.74z M346.36,774.14v-19.43h-25.09v19.43H346.36z"/>
		<path class="st0" d="M419.21,754.57h-25.39v8.09h13.69v5.81h-13.69v11.63h-7.65v-31.13h33.04V754.57z"/>
		<path class="st0" d="M480.79,754.57h-15.08v25.53h-7.58v-25.53h-15.01v-5.59h37.68V754.57z"/>
		<path class="st0" d="M559.09,748.98l-12.51,31.13h-5.15l-8.98-22l-9.12,22h-5.22l-12.66-31.13h7.95l8.17,21.71l8.76-21.71h5.22
			l8.68,21.71l8.02-21.71H559.09z"/>
		<path class="st0" d="M626.71,780.1h-8.54l-3.9-6.84h-20.6l-3.9,6.84h-7.58l18.47-31.13h7.28L626.71,780.1z M611.18,767.59
			l-7.28-12.95l-6.99,12.95H611.18z"/>
		<path class="st0" d="M692.13,780.1h-10.89l-13.02-11.77h-7.14v11.77h-7.51v-31.13h28.04c4.86,0,7.28,2.01,7.28,6.03v7.36
			c0,3.04-1.3,4.91-3.9,5.59c-0.88,0.25-3.43,0.37-7.65,0.37L692.13,780.1z M681.82,760.46v-3.61c0-1.67-1.15-2.5-3.46-2.5h-17.29
			v8.61h17.29C680.67,762.96,681.82,762.12,681.82,760.46z"/>
		<path class="st0" d="M754.31,780.1h-33.77v-31.13h33.41v5.52h-25.75v6.77h15.01v5.37h-15.01v7.65h26.12V780.1z"/>
	</g>
	<path class="st1" d="M399.89,478.45c-0.73-0.44-1.46-0.89-2.18-1.39c-10.94-7.5-16.4-18.68-15.78-32.34
		c0.08-1.82,0.46-3.4,0.74-4.55c0.07-0.29,0.14-0.58,0.2-0.87c0.77-3.76,3.69-6.61,7.32-7.39c1.71-2.1,4.28-3.39,7.06-3.48
		c1.7-1.57,3.96-2.54,6.45-2.54h19.35c-0.91-0.61-1.87-1.24-2.89-1.89c-17.22-10.85-25.97-24.67-25.97-41.05v-13.25
		c0-24.21,13.92-37.97,39.29-39.03v-15.33c0-5.25,4.26-9.51,9.51-9.51h33.15c-0.17-0.1-0.34-0.2-0.5-0.31
		c-5.76-4.01-11.3-8.32-17.15-12.2c-2.55-1.69-3.24-3.59-3.23-6.5c0.11-21.24,0.02-42.47,0.1-63.71c0.01-2.42-0.53-3.25-3.14-3.24
		c-30.53,0.1-61.07,0.06-91.6,0.07c-0.97,0-1.94,0.09-3.29,0.16c0,56.5,0,112.76,0,169.35c-38.32,0-76.23,0-114.15,0
		c-0.11,0.23-0.23,0.46-0.34,0.68c0.59,0.42,1.23,0.78,1.76,1.27c17.77,16.35,35.56,32.69,53.26,49.11
		c1.26,1.16,2.31,2.84,2.81,4.48c4.02,13.25,7.84,26.56,11.86,39.81c0.4,1.31,1.48,2.73,2.64,3.44c7.33,4.43,14.76,8.69,22.17,12.99
		c6.6,3.83,13.22,7.65,20.07,11.62c0.75-1.04,1.29-1.76,1.8-2.5c7.16-10.45,14.35-20.88,21.44-31.37c1.08-1.6,2.02-2.08,3.97-1.47
		c6.3,1.97,12.63,3.87,18.97,5.72C402.12,481.68,400.89,480.06,399.89,478.45z"/>
	<path class="st2" d="M666.81,419.54c-5.74-8.88-11.72-17.6-17.46-26.47c-0.91-1.41-1.48-3.35-1.43-5.03
		c0.52-19.86,1.19-39.72,1.82-59.58c0.03-0.95,0-1.91,0-3.23c-3.62,0-6.82-0.25-9.98,0.05c-7.67,0.72-14.28-1.31-19.92-6.66
		c-1.64-1.55-3.57-2.87-5.55-3.96c-1.33-0.73-3.04-1.31-4.49-1.16c-5.72,0.61-11.41,1.37-17.12,2.1
		c19.81,5.46,31.07,19.22,30.93,37.99c-0.03,4.88-0.91,10.25-2.56,15.51c-3.29,10.5-8.88,20.72-16.59,30.36
		c-6.24,7.79-13.28,15.24-20.93,22.14c-1.01,0.91-2.05,1.81-3.08,2.71c1.61,4.44,2.43,9.08,2.43,13.88v17.81
		c0,25.27-15.1,39.19-42.52,39.19c-0.01,0-0.02,0-0.02,0c-14.82-0.04-24.53-4.04-30.89-9.65c-1.34,3.63-4.82,6.22-8.91,6.22h-23.01
		c-4.34,0-7.99-2.91-9.13-6.88c-7.25,6.84-17.83,10.31-31.6,10.31c-0.01,0-0.02,0-0.02,0c-7.35-0.02-13.39-1.06-18.38-2.73
		c19.71,34.75,39.48,69.47,59.29,104.17c0.68,1.18,1.74,2.4,2.92,3c21.74,11.12,43.52,22.14,65.29,33.18
		c0.85,0.43,1.73,0.8,2.82,1.3c0-1.42,0.05-2.42-0.01-3.4c-1.23-21.2-2.44-42.4-3.75-63.59c-0.14-2.23,0.31-3.96,1.72-5.75
		c7.1-9.02,14.04-18.17,21.14-27.19c1.14-1.45,2.66-2.76,4.28-3.66c28.25-15.73,56.54-31.42,84.86-47.02
		c1.98-1.09,2.84-2.37,3.15-4.57c2.56-18.22,5.27-36.43,7.8-54.65C668.12,422.76,667.65,420.83,666.81,419.54z"/>
	<path class="st1" d="M583.06,329.17c-2.59-0.54-5.28-0.62-7.92-0.92c-10.33-1.25-20.43-0.35-30.37,1.62
		c-0.01,1.24,0.01,2.47,0.05,3.7c0.65-0.08,1.28-0.14,1.86-0.19c7.51-0.62,15-0.33,22.32,1.7c13.36,3.71,18.81,14.28,14.71,27.78
		c-2.96,9.75-8.62,17.93-15.11,25.46c-6,6.96-12.47,13.7-19.55,19.45c-30.01,24.35-62.83,41.51-98.82,49.31
		c-9.66,2.1-19.42,2.96-28.96,1.76c-5.02-0.63-10.02-2.55-14.5-4.92c-5.18-2.73-8.21-7.7-8.65-14.23c-0.04-0.6-0.36-1.17-0.54-1.76
		c-0.25,0.62-0.59,1.23-0.73,1.87c-1.68,7.81,0.92,19.21,10.77,24.43c9.31,4.94,19.34,6.2,29.82,5.71
		c22.99-1.09,45.01-8.35,66.83-17.87c21.31-9.3,40.98-22.01,59.41-37.03c11.87-9.67,22.77-20.47,31.25-33.44
		c4.52-6.92,8.18-14.2,9.74-22.32C607.87,342.52,598.46,332.39,583.06,329.17z"/>
	<path class="st2" d="M477.53,444.2c7.75-2.87,15.43-6.21,23.01-10.03v-98.8h39.79v-20h-97.35v20h34.54V444.2z"/>
	<path d="M563.72,415.16c-1.81,1.46-3.61,2.89-5.41,4.28c1.83-1.38,3.65-2.79,5.47-4.22C563.75,415.2,563.73,415.18,563.72,415.16z"
		/>
	<path class="st2" d="M425.24,415.99c14.36,9.11,21.55,17.08,21.55,23.91v13.09c0.9-0.17,1.81-0.36,2.73-0.55
		c6.81-1.48,13.57-3.33,20.29-5.53v-8.72c0-12.69-7.18-23.55-21.55-32.61c-14.37-9.11-21.55-16.8-21.55-23.09v-12.77
		c0-6.34,3.31-9.51,9.92-9.51h0.16c6.67,0,10,3.17,10,9.51v18.95h23.01v-18.95c0-19.73-11.03-29.6-33.09-29.6
		c-22.01,0-33.01,9.87-33.01,29.6v13.25C403.7,395.93,410.88,406.93,425.24,415.99z"/>
	<path class="st2" d="M530.29,382.49v-12.77c0-6.34,3.31-9.51,9.92-9.51h0.16c6.67,0,10,3.17,10,9.51v18.95h12.52
		c1.25-1.38,2.51-2.79,3.79-4.28c2.58-2.99,4.79-5.83,6.7-8.6v-6.07c0-19.73-11.03-29.6-33.09-29.6c-22.01,0-33.01,9.87-33.01,29.6
		v13.25c0,12.96,7.18,23.96,21.55,33.01c0.37,0.24,0.72,0.47,1.08,0.7c5.9-4.07,11.74-8.45,17.51-13.13c0.2-0.16,0.4-0.34,0.6-0.5
		C536.21,395.05,530.29,388.19,530.29,382.49z"/>
	<path class="st1" d="M477.53,470.09v12.15h23.01v-20.25C492.64,465.25,485,467.94,477.53,470.09z"/>
	<path class="st1" d="M549.57,435.83c0.53,1.4,0.8,2.75,0.8,4.06v16.1c0,6.34-3.33,9.51-10,9.51c-6.72,0-10.08-3.17-10.08-9.51
		v-8.51c-4.14,2.38-8.33,4.69-12.58,6.75c-3.5,1.71-6.94,3.32-10.33,4.83c1.12,17.68,12.11,26.56,32.99,26.61
		c22.01,0,33.01-9.89,33.01-29.68v-17.81c0-5.83-1.53-11.26-4.57-16.32C562.67,426.82,556.24,431.49,549.57,435.83z"/>
	<path class="st1" d="M463.94,473.48c-10.74,2.22-19.24,3.22-27.58,3.22c0,0,0,0,0,0c-6.09,0-11.94-0.54-17.89-1.65
		c-2.52-0.38-6.88-1.31-11.57-3.5c4.73,9.38,14.69,14.09,29.89,14.13c14.33,0,24-4.2,28.99-12.59
		C465.17,473.21,464.55,473.35,463.94,473.48z"/>
	<path class="st2" d="M407.56,447.85c4.88,2.58,9.5,4.15,13.75,4.68c1.76,0.22,3.57,0.36,5.41,0.45v-17.56H403.7v9.38
		C404.77,446.02,406.04,447.05,407.56,447.85z"/>
	<path class="st1" d="M391.43,445.16c-0.48,10.55,3.51,18.48,11.64,24.05c5.49,3.75,11.66,5.51,16.03,6.16
		c16.17,3.01,30.33,1.4,44.61-1.56c18.34-3.8,35.96-10.6,53.25-19.07c8.04-3.91,15.85-8.65,23.61-13.27
		c12.95-7.7,25.26-16.72,36.6-26.95c7.16-6.46,13.83-13.48,19.87-21.02c6.61-8.26,11.81-17.28,14.95-27.27
		c1.28-4.09,2.1-8.5,2.12-12.73c0.13-16.96-11.02-25.58-25.2-29.11c-2.87-0.72-5.89-0.97-8.87-1.29c0,0-0.05-0.01-0.16-0.01l-0.03,0
		c-0.29-0.01-0.92-0.03-1.8-0.05c-2.68-0.05-7.72-0.05-12.8,0.49c1.08,0.02,7.99,0.14,14.17,0.99c2.42,0.33,4.89,0.82,6.7,1.41
		c1.07,0.24,2.12,0.53,3.16,0.86c14.28,4.56,21.6,16.12,19.7,31.11c-1.22,9.52-5.33,18.03-10.49,26.08
		c-8.06,12.58-18.21,23.38-29.73,32.77c-27.8,22.65-58.26,39.3-91.03,49.72c-16.36,5.21-32.84,8.24-49.53,7.3
		c-7.08-0.41-13.86-1.91-20.17-5.02c-9.36-4.62-15.09-12.02-15.19-23.71c-0.01-1.28-0.42-2.54-0.65-3.82
		C391.92,442.53,391.49,443.84,391.43,445.16z"/>
	<path class="st1" d="M133.57,674.12c0-5.86,2.1-10.89,6.3-15.09c4.2-4.2,9.31-6.3,15.33-6.3h43.25v16.34h-43.25
		c-1.28,0-2.4,0.48-3.36,1.44c-0.96,0.96-1.44,2.16-1.44,3.6c0,1.44,0.48,2.64,1.44,3.6c0.96,0.96,2.08,1.44,3.36,1.44h21.63
		c6.02,0,11.13,2.1,15.33,6.3c4.2,4.2,6.3,9.23,6.3,15.09c0,5.86-2.1,10.89-6.3,15.09c-4.2,4.2-9.31,6.3-15.33,6.3h-43.25V705.6
		h43.25c1.28,0,2.4-0.48,3.36-1.44c0.96-0.96,1.44-2.16,1.44-3.6c0-1.44-0.48-2.64-1.44-3.6c-0.96-0.96-2.08-1.44-3.36-1.44h-21.63
		c-6.02,0-11.13-2.1-15.33-6.3C135.67,685.02,133.57,679.99,133.57,674.12z"/>
	<path class="st1" d="M238.1,721.94c-9.68,0-17.9-3.39-24.68-10.16c-6.78-6.78-10.16-14.92-10.16-24.44
		c0-9.52,3.39-17.66,10.16-24.44c6.78-6.78,15-10.16,24.68-10.16c9.68,0,17.9,3.39,24.68,10.16c6.78,6.78,10.16,14.92,10.16,24.44
		c0,9.52-3.39,17.66-10.16,24.44C256,718.55,247.77,721.94,238.1,721.94z M250.81,700.29c3.54-3.54,5.31-7.86,5.31-12.95
		c0-5.09-1.77-9.41-5.31-12.95c-3.54-3.54-7.78-5.31-12.71-5.31c-4.93,0-9.17,1.77-12.71,5.31c-3.54,3.54-5.31,7.86-5.31,12.95
		c0,5.09,1.77,9.41,5.31,12.95c3.54,3.54,7.78,5.31,12.71,5.31C243.03,705.6,247.27,703.83,250.81,700.29z"/>
	<path class="st1" d="M277.74,689.74v-37h16.82v37c0,4.39,1.76,8.13,5.29,11.22c3.52,3.09,7.77,4.64,12.74,4.64
		c4.97,0,9.21-1.54,12.74-4.64c3.52-3.09,5.29-6.83,5.29-11.22v-37h16.82v37c0,8.84-3.4,16.42-10.19,22.73
		c-6.79,6.31-15.01,9.47-24.65,9.47c-9.64,0-17.86-3.16-24.65-9.47C281.14,706.16,277.74,698.58,277.74,689.74z"/>
	<path class="st1" d="M417.11,652.74v16.34h-24.03v52.86h-16.82v-52.86h-24.03v-16.34H417.11z"/>
	<path class="st1" d="M421.92,652.74h16.82v26.43h36.04v-26.43h16.82v69.2h-16.82v-26.43h-36.04v26.43h-16.82V652.74z"/>
	<path class="st2" d="M587.69,652.74v16.34h-24.03v52.86h-16.82v-52.86h-24.03v-16.34H587.69z"/>
	<path class="st2" d="M614.13,695.51c-1.28,0-2.4,0.48-3.36,1.44c-0.96,0.96-1.44,2.16-1.44,3.6c0,1.44,0.48,2.64,1.44,3.6
		c0.96,0.96,2.08,1.44,3.36,1.44h43.25v16.34h-43.25c-6.02,0-11.13-2.1-15.33-6.3c-4.2-4.2-6.3-9.23-6.3-15.09
		c0-5.25,1.54-9.66,4.61-13.22c-3.08-3.56-4.61-7.96-4.61-13.22c0-5.86,2.1-10.89,6.3-15.09c4.2-4.2,9.31-6.3,15.33-6.3h43.25v16.34
		h-43.25c-1.28,0-2.4,0.48-3.36,1.44c-0.96,0.96-1.44,2.16-1.44,3.6c0,1.44,0.48,2.64,1.44,3.6c0.96,0.96,2.08,1.44,3.36,1.44h43.25
		v16.34H614.13z"/>
	<path class="st2" d="M682.46,687.24l-23.5-34.55h19.56l13.65,20.14l13.74-20.09l19.56-0.1l-23.5,34.65l23.5,34.6l-19.56,0.05
		l-13.7-20.23l-13.7,20.23h-19.56L682.46,687.24z"/>
	<path class="st2" d="M759.5,652.74h37.24v69.2h-16.82v-52.86H759.5c-4.23,0-7.89,1.76-10.98,5.29c-3.09,3.52-4.64,7.85-4.64,12.98
		c0,5.13,1.55,9.45,4.64,12.98c3.09,3.53,6.75,5.29,10.98,5.29h18.02v16.34H759.5c-9,0-16.66-3.4-22.97-10.19
		c-6.31-6.79-9.47-14.93-9.47-24.41c0-9.48,3.16-17.62,9.47-24.41C742.84,656.13,750.5,652.74,759.5,652.74z"/>
	<path class="st2" d="M801.55,674.12c0-5.86,2.1-10.89,6.3-15.09c4.2-4.2,9.31-6.3,15.33-6.3h43.25v16.34h-43.25
		c-1.28,0-2.4,0.48-3.36,1.44c-0.96,0.96-1.44,2.16-1.44,3.6c0,1.44,0.48,2.64,1.44,3.6c0.96,0.96,2.08,1.44,3.36,1.44h21.63
		c6.02,0,11.13,2.1,15.33,6.3c4.2,4.2,6.3,9.23,6.3,15.09c0,5.86-2.1,10.89-6.3,15.09c-4.2,4.2-9.31,6.3-15.33,6.3h-43.25V705.6
		h43.25c1.28,0,2.4-0.48,3.36-1.44c0.96-0.96,1.44-2.16,1.44-3.6c0-1.44-0.48-2.64-1.44-3.6c-0.96-0.96-2.08-1.44-3.36-1.44h-21.63
		c-6.02,0-11.13-2.1-15.33-6.3C803.65,685.02,801.55,679.99,801.55,674.12z"/>
</g>
</svg>
