<?xml version="1.0" encoding="UTF-8"?>
<svg width="900px" height="900px" viewBox="0 0 900 900" version="1.1" xmlns="http://www.w3.org/2000/svg" xmlns:xlink="http://www.w3.org/1999/xlink">
    <title>sts-logo-regular</title>
    <g id="client-portal" stroke="none" stroke-width="1" fill="none" fill-rule="evenodd">
        <g id="client-portal-desktop" transform="translate(-321.000000, -108.000000)">
            <g id="sts-logo-regular" transform="translate(321.000000, 108.000000)">
                <g id="Group" transform="translate(207.110000, 659.090089)" fill="#6D6E71" fill-rule="nonzero">
                    <path d="M36.51,23.78 C36.51,26.72 35.92,28.69 34.74,29.67 C33.56,30.65 31.45,31.14 28.41,31.14 L8.17,31.14 C4.83,31.14 2.64,30.59 1.58,29.48 C0.52,28.38 -2.84217094e-14,26.18 -2.84217094e-14,22.89 L6.77,21.64 L6.77,25.32 L29.66,25.32 L29.66,18.18 L9.5,18.18 C6.46,18.18 4.37,17.71 3.25,16.78 C1.97,15.75 1.34,13.76 1.34,10.82 L1.34,7.36 C1.34,4.42 1.98,2.43 3.25,1.4 C4.38,0.47 6.46,0 9.5,0 L27.97,0 C31.11,0 33.26,0.49 34.41,1.47 C35.56,2.45 36.14,4.46 36.14,7.5 L29.59,8.9 L29.59,5.59 L8.18,5.59 L8.18,12.14 L28.42,12.14 C31.46,12.14 33.57,12.62 34.75,13.58 C35.93,14.54 36.52,16.51 36.52,19.5 L36.52,23.78 L36.51,23.78 Z" id="Path"></path>
                    <path d="M108.26,23.78 C108.26,26.72 107.67,28.69 106.49,29.67 C105.31,30.65 103.2,31.14 100.16,31.14 L76.1,31.14 C73.06,31.14 70.95,30.66 69.77,29.7 C68.59,28.74 68,26.77 68,23.78 L68,7.37 C68,4.38 68.59,2.4 69.77,1.45 C70.95,0.49 73.06,0.01 76.1,0.01 L100.16,0.01 C103.2,0.01 105.31,0.49 106.49,1.45 C107.67,2.41 108.26,4.38 108.26,7.37 L108.26,23.78 Z M100.68,25.18 L100.68,5.75 L75.59,5.75 L75.59,25.18 L100.68,25.18 Z" id="Shape"></path>
                    <polygon id="Path" points="173.53 5.61 148.14 5.61 148.14 13.7 161.83 13.7 161.83 19.51 148.14 19.51 148.14 31.14 140.49 31.14 140.49 0.01 173.53 0.01 173.53 5.61"></polygon>
                    <polygon id="Path" points="235.11 5.61 220.03 5.61 220.03 31.14 212.45 31.14 212.45 5.61 197.44 5.61 197.44 0.02 235.12 0.02 235.12 5.61"></polygon>
                    <polygon id="Path" points="313.41 0.02 300.9 31.15 295.75 31.15 286.77 9.15 277.65 31.15 272.43 31.15 259.77 0.02 267.72 0.02 275.89 21.73 284.65 0.02 289.87 0.02 298.55 21.73 306.57 0.02"></polygon>
                    <path d="M381.03,31.14 L372.49,31.14 L368.59,24.3 L347.99,24.3 L344.09,31.14 L336.51,31.14 L354.98,0.01 L362.26,0.01 L381.03,31.14 Z M365.5,18.63 L358.22,5.68 L351.23,18.63 L365.5,18.63 Z" id="Shape"></path>
                    <path d="M446.45,31.14 L435.56,31.14 L422.54,19.37 L415.4,19.37 L415.4,31.14 L407.89,31.14 L407.89,0.01 L435.93,0.01 C440.79,0.01 443.21,2.02 443.21,6.04 L443.21,13.4 C443.21,16.44 441.91,18.31 439.31,18.99 C438.43,19.24 435.88,19.36 431.66,19.36 L446.45,31.14 Z M436.14,11.5 L436.14,7.89 C436.14,6.22 434.99,5.39 432.68,5.39 L415.39,5.39 L415.39,14 L432.68,14 C434.99,14 436.14,13.16 436.14,11.5 Z" id="Shape"></path>
                    <polygon id="Path" points="508.63 31.14 474.86 31.14 474.86 0.01 508.27 0.01 508.27 5.53 482.52 5.53 482.52 12.3 497.53 12.3 497.53 17.67 482.52 17.67 482.52 25.32 508.64 25.32 508.64 31.14"></polygon>
                </g>
                <circle id="Oval" stroke="#122745" stroke-width="7" cx="450" cy="450" r="446.5"></circle>
                <path d="M361.32,388.580089 C360.59,388.140089 359.86,387.690089 359.14,387.190089 C348.2,379.690089 342.74,368.510089 343.36,354.850089 C343.44,353.030089 343.82,351.450089 344.1,350.300089 C344.17,350.010089 344.24,349.720089 344.3,349.430089 C345.07,345.670089 347.99,342.820089 351.62,342.040089 C353.33,339.940089 355.9,338.650089 358.68,338.560089 C360.38,336.990089 362.64,336.020089 365.13,336.020089 L384.48,336.020089 C383.57,335.410089 382.61,334.780089 381.59,334.130089 C364.37,323.280089 355.62,309.460089 355.62,293.080089 L355.62,279.830089 C355.62,255.620089 369.54,241.860089 394.91,240.800089 L394.91,225.470089 C394.91,220.220089 399.17,215.960089 404.42,215.960089 L437.57,215.960089 C437.4,215.860089 437.23,215.760089 437.07,215.650089 C431.31,211.640089 425.77,207.330089 419.92,203.450089 C417.37,201.760089 416.68,199.860089 416.69,196.950089 C416.8,175.710089 416.71,154.480089 416.79,133.240089 C416.8,130.820089 416.26,129.990089 413.65,130 C383.12,130.100089 352.58,130.060089 322.05,130.070089 C321.08,130.070089 320.11,130.160089 318.76,130.230089 C318.76,186.730089 318.76,242.990089 318.76,299.580089 C280.44,299.580089 242.53,299.580089 204.61,299.580089 C204.5,299.810089 204.38,300.040089 204.27,300.260089 C204.86,300.680089 205.5,301.040089 206.03,301.530089 C223.8,317.880089 241.59,334.220089 259.29,350.640089 C260.55,351.800089 261.6,353.480089 262.1,355.120089 C266.12,368.370089 269.94,381.680089 273.96,394.930089 C274.36,396.240089 275.44,397.660089 276.6,398.370089 C283.93,402.800089 291.36,407.060089 298.77,411.360089 C305.37,415.190089 311.99,419.010089 318.84,422.980089 C319.59,421.940089 320.13,421.220089 320.64,420.480089 C327.8,410.030089 334.99,399.600089 342.08,389.110089 C343.16,387.510089 344.1,387.030089 346.05,387.640089 C352.35,389.610089 358.68,391.510089 365.02,393.360089 C363.55,391.810089 362.32,390.190089 361.32,388.580089 Z" id="Path" fill="#122745" fill-rule="nonzero"></path>
                <path d="M628.24,329.670089 C622.5,320.790089 616.52,312.070089 610.78,303.200089 C609.87,301.790089 609.3,299.850089 609.35,298.170089 C609.87,278.310089 610.54,258.450089 611.17,238.590089 C611.2,237.640089 611.17,236.680089 611.17,235.360089 C607.55,235.360089 604.35,235.110089 601.19,235.410089 C593.52,236.130089 586.91,234.100089 581.27,228.750089 C579.63,227.200089 577.7,225.880089 575.72,224.790089 C574.39,224.060089 572.68,223.480089 571.23,223.630089 C565.51,224.240089 559.82,225.000089 554.11,225.730089 C573.92,231.190089 585.18,244.950089 585.04,263.720089 C585.01,268.600089 584.13,273.970089 582.48,279.230089 C579.19,289.730089 573.6,299.950089 565.89,309.590089 C559.65,317.380089 552.61,324.830089 544.96,331.730089 C543.95,332.640089 542.91,333.540089 541.88,334.440089 C543.49,338.880089 544.31,343.520089 544.31,348.320089 L544.31,366.130089 C544.31,391.400089 529.21,405.320089 501.79,405.320089 C501.78,405.320089 501.77,405.320089 501.77,405.320089 C486.95,405.280089 477.24,401.280089 470.88,395.670089 C469.54,399.300089 466.06,401.890089 461.97,401.890089 L438.96,401.890089 C434.62,401.890089 430.97,398.980089 429.83,395.010089 C422.58,401.850089 412,405.320089 398.23,405.320089 C398.22,405.320089 398.21,405.320089 398.21,405.320089 C390.86,405.300089 384.82,404.260089 379.83,402.590089 C399.54,437.340089 419.31,472.060089 439.12,506.760089 C439.8,507.940089 440.86,509.160089 442.04,509.760089 C463.78,520.880089 485.56,531.900089 507.33,542.940089 C508.18,543.370089 509.06,543.740089 510.15,544.240089 C510.15,542.820089 510.2,541.820089 510.14,540.840089 C508.91,519.640089 507.7,498.440089 506.39,477.250089 C506.25,475.020089 506.7,473.290089 508.11,471.500089 C515.21,462.480089 522.15,453.330089 529.25,444.310089 C530.39,442.860089 531.91,441.550089 533.53,440.650089 C561.78,424.920089 590.07,409.230089 618.39,393.630089 C620.37,392.540089 621.23,391.260089 621.54,389.060089 C624.1,370.840089 626.81,352.630089 629.34,334.410089 C629.55,332.890089 629.08,330.960089 628.24,329.670089 Z" id="Path" fill="#3C4F71" fill-rule="nonzero"></path>
                <path d="M544.49,239.300089 C541.9,238.760089 539.21,238.680089 536.57,238.380089 C526.24,237.130089 516.14,238.030089 506.2,240.000089 C506.19,241.240089 506.21,242.470089 506.25,243.700089 C506.9,243.620089 507.53,243.560089 508.11,243.510089 C515.62,242.890089 523.11,243.180089 530.43,245.210089 C543.79,248.920089 549.24,259.490089 545.14,272.990089 C542.18,282.740089 536.52,290.920089 530.03,298.450089 C524.03,305.410089 517.56,312.150089 510.48,317.900089 C480.47,342.250089 447.65,359.410089 411.66,367.210089 C402,369.310089 392.24,370.170089 382.7,368.970089 C377.68,368.340089 372.68,366.420089 368.2,364.050089 C363.02,361.320089 359.99,356.350089 359.55,349.820089 C359.51,349.220089 359.19,348.650089 359.01,348.060089 C358.76,348.680089 358.42,349.290089 358.28,349.930089 C356.6,357.740089 359.2,369.140089 369.05,374.360089 C378.36,379.300089 388.39,380.560089 398.87,380.070089 C421.86,378.980089 443.88,371.720089 465.7,362.200089 C487.01,352.900089 506.68,340.190089 525.11,325.170089 C536.98,315.500089 547.88,304.700089 556.36,291.730089 C560.88,284.810089 564.54,277.530089 566.1,269.410089 C569.3,252.650089 559.89,242.520089 544.49,239.300089 Z" id="Path" fill="#122745" fill-rule="nonzero"></path>
                <path d="M438.96,354.330089 C446.71,351.460089 454.39,348.120089 461.97,344.300089 L461.97,245.500089 L501.76,245.500089 L501.76,225.500089 L404.41,225.500089 L404.41,245.500089 L438.95,245.500089 L438.95,354.330089 L438.96,354.330089 Z" id="Path" fill="#3C4F71" fill-rule="nonzero"></path>
                <path d="M525.15,325.290089 C523.34,326.750089 521.54,328.180089 519.74,329.570089 C521.57,328.190089 523.39,326.780089 525.21,325.350089 C525.18,325.330089 525.16,325.310089 525.15,325.290089 Z" id="Path" fill="#000000" fill-rule="nonzero"></path>
                <path d="M386.67,326.120089 C401.03,335.230089 408.22,343.200089 408.22,350.030089 L408.22,363.120089 C409.12,362.950089 410.03,362.760089 410.95,362.570089 C417.76,361.090089 424.52,359.240089 431.24,357.040089 L431.24,348.320089 C431.24,335.630089 424.06,324.770089 409.69,315.710089 C395.32,306.600089 388.14,298.910089 388.14,292.620089 L388.14,279.850089 C388.14,273.510089 391.45,270.340089 398.06,270.340089 L398.22,270.340089 C404.89,270.340089 408.22,273.510089 408.22,279.850089 L408.22,298.800089 L431.23,298.800089 L431.23,279.850089 C431.23,260.120089 420.2,250.250089 398.14,250.250089 C376.13,250.250089 365.13,260.120089 365.13,279.850089 L365.13,293.100089 C365.13,306.060089 372.31,317.060089 386.67,326.120089 Z" id="Path" fill="#3C4F71" fill-rule="nonzero"></path>
                <path d="M491.72,292.620089 L491.72,279.850089 C491.72,273.510089 495.03,270.340089 501.64,270.340089 L501.8,270.340089 C508.47,270.340089 511.8,273.510089 511.8,279.850089 L511.8,298.800089 L524.32,298.800089 C525.57,297.420089 526.83,296.010089 528.11,294.520089 C530.69,291.530089 532.9,288.690089 534.81,285.920089 L534.81,279.850089 C534.81,260.120089 523.78,250.250089 501.72,250.250089 C479.71,250.250089 468.71,260.120089 468.71,279.850089 L468.71,293.100089 C468.71,306.060089 475.89,317.060089 490.26,326.110089 C490.63,326.350089 490.98,326.580089 491.34,326.810089 C497.24,322.740089 503.08,318.360089 508.85,313.680089 C509.05,313.520089 509.25,313.340089 509.45,313.180089 C497.64,305.180089 491.72,298.320089 491.72,292.620089 Z" id="Path" fill="#3C4F71" fill-rule="nonzero"></path>
                <path d="M438.96,380.220089 L438.96,392.370089 L461.97,392.370089 L461.97,372.120089 C454.07,375.380089 446.43,378.070089 438.96,380.220089 Z" id="Path" fill="#122745" fill-rule="nonzero"></path>
                <path d="M511,345.960089 C511.53,347.360089 511.8,348.710089 511.8,350.020089 L511.8,366.120089 C511.8,372.460089 508.47,375.630089 501.8,375.630089 C495.08,375.630089 491.72,372.460089 491.72,366.120089 L491.72,357.610089 C487.58,359.990089 483.39,362.300089 479.14,364.360089 C475.64,366.070089 472.2,367.680089 468.81,369.190089 C469.93,386.870089 480.92,395.750089 501.8,395.800089 C523.81,395.800089 534.81,385.910089 534.81,366.120089 L534.81,348.310089 C534.81,342.480089 533.28,337.050089 530.24,331.990089 C524.1,336.950089 517.67,341.620089 511,345.960089 Z" id="Path" fill="#122745" fill-rule="nonzero"></path>
                <path d="M425.37,383.610089 C414.63,385.830089 406.13,386.830089 397.79,386.830089 C397.79,386.830089 397.79,386.830089 397.79,386.830089 C391.7,386.830089 385.85,386.290089 379.9,385.180089 C377.38,384.800089 373.02,383.870089 368.33,381.680089 C373.06,391.060089 383.02,395.770089 398.22,395.810089 C412.55,395.810089 422.22,391.610089 427.21,383.220089 C426.6,383.340089 425.98,383.480089 425.37,383.610089 Z" id="Path" fill="#122745" fill-rule="nonzero"></path>
                <path d="M368.99,357.980089 C373.87,360.560089 378.49,362.130089 382.74,362.660089 C384.5,362.880089 386.31,363.020089 388.15,363.110089 L388.15,345.550089 L365.13,345.550089 L365.13,354.930089 C366.2,356.150089 367.47,357.180089 368.99,357.980089 Z" id="Path" fill="#3C4F71" fill-rule="nonzero"></path>
                <path d="M352.86,355.290089 C352.38,365.840089 356.37,373.770089 364.5,379.340089 C369.99,383.090089 376.16,384.850089 380.53,385.500089 C396.7,388.510089 410.86,386.900089 425.14,383.940089 C443.48,380.140089 461.1,373.340089 478.39,364.870089 C486.43,360.960089 494.24,356.220089 502,351.600089 C514.95,343.900089 527.26,334.880089 538.6,324.650089 C545.76,318.190089 552.43,311.170089 558.47,303.630089 C565.08,295.370089 570.28,286.350089 573.42,276.360089 C574.7,272.270089 575.52,267.860089 575.541125,263.630089 C575.67,246.670089 564.52,238.050089 550.34,234.520089 C547.47,233.800089 544.45,233.550089 541.47,233.230089 C541.47,233.230089 541.42,233.220089 541.31,233.220089 L541.28,233.220089 C540.99,233.210089 540.36,233.190089 539.48,233.170089 C536.8,233.120089 531.76,233.120089 526.68,233.660089 C527.76,233.680089 534.67,233.800089 540.85,234.650089 C543.27,234.980089 545.74,235.470089 547.55,236.060089 C548.62,236.300089 549.67,236.590089 550.71,236.920089 C564.99,241.480089 572.31,253.040089 570.41,268.030089 C569.19,277.550089 565.08,286.060089 559.92,294.110089 C551.86,306.690089 541.71,317.490089 530.19,326.880089 C502.39,349.530089 471.93,366.180089 439.16,376.600089 C422.8,381.810089 406.32,384.840089 389.63,383.900089 C382.55,383.490089 375.77,381.990089 369.46,378.880089 C360.1,374.260089 354.37,366.860089 354.27,355.170089 C354.26,353.890089 353.85,352.630089 353.62,351.350089 C353.35,352.660089 352.92,353.970089 352.86,355.290089 Z" id="Path" fill="#122745" fill-rule="nonzero"></path>
                <path d="M95,584.250089 C95,578.390089 97.1,573.360089 101.3,569.160089 C105.5,564.960089 110.61,562.860089 116.63,562.860089 L159.88,562.860089 L159.88,579.200089 L116.63,579.200089 C115.35,579.200089 114.23,579.680089 113.27,580.640089 C112.31,581.600089 111.83,582.800089 111.83,584.240089 C111.83,585.680089 112.31,586.880089 113.27,587.840089 C114.23,588.800089 115.35,589.280089 116.63,589.280089 L138.26,589.280089 C144.28,589.280089 149.39,591.380089 153.59,595.580089 C157.79,599.780089 159.89,604.810089 159.89,610.670089 C159.89,616.530089 157.79,621.560089 153.59,625.760089 C149.39,629.960089 144.28,632.060089 138.26,632.060089 L95.01,632.060089 L95.01,615.730089 L138.26,615.730089 C139.54,615.730089 140.66,615.250089 141.62,614.290089 C142.58,613.330089 143.06,612.130089 143.06,610.690089 C143.06,609.250089 142.58,608.050089 141.62,607.090089 C140.66,606.130089 139.54,605.650089 138.26,605.650089 L116.63,605.650089 C110.61,605.650089 105.5,603.550089 101.3,599.350089 C97.1,595.150089 95,590.120089 95,584.250089 Z" id="Path" fill="#122745" fill-rule="nonzero"></path>
                <path d="M199.53,632.070089 C189.85,632.070089 181.63,628.680089 174.85,621.910089 C168.07,615.130089 164.69,606.990089 164.69,597.470089 C164.69,587.950089 168.08,579.810089 174.85,573.030089 C181.63,566.250089 189.85,562.870089 199.53,562.870089 C209.21,562.870089 217.43,566.260089 224.21,573.030089 C230.99,579.810089 234.37,587.950089 234.37,597.470089 C234.37,606.990089 230.98,615.130089 224.21,621.910089 C217.43,628.680089 209.2,632.070089 199.53,632.070089 Z M212.24,610.420089 C215.78,606.880089 217.55,602.560089 217.55,597.470089 C217.55,592.380089 215.78,588.060089 212.24,584.520089 C208.7,580.980089 204.46,579.210089 199.53,579.210089 C194.6,579.210089 190.36,580.980089 186.82,584.520089 C183.28,588.060089 181.51,592.380089 181.51,597.470089 C181.51,602.560089 183.28,606.880089 186.82,610.420089 C190.36,613.960089 194.6,615.730089 199.53,615.730089 C204.46,615.730089 208.7,613.960089 212.24,610.420089 Z" id="Shape" fill="#122745" fill-rule="nonzero"></path>
                <path d="M239.17,599.870089 L239.17,562.870089 L255.99,562.870089 L255.99,599.870089 C255.99,604.260089 257.75,608.000089 261.28,611.090089 C264.8,614.180089 269.05,615.730089 274.02,615.730089 C278.99,615.730089 283.23,614.190089 286.76,611.090089 C290.28,608.000089 292.05,604.260089 292.05,599.870089 L292.05,562.870089 L308.87,562.870089 L308.87,599.870089 C308.87,608.710089 305.47,616.290089 298.68,622.600089 C291.89,628.910089 283.67,632.070089 274.03,632.070089 C264.39,632.070089 256.17,628.910089 249.38,622.600089 C242.57,616.290089 239.17,608.710089 239.17,599.870089 Z" id="Path" fill="#122745" fill-rule="nonzero"></path>
                <polygon id="Path" fill="#122745" fill-rule="nonzero" points="378.54 562.870089 378.54 579.210089 354.51 579.210089 354.51 632.070089 337.69 632.070089 337.69 579.210089 313.66 579.210089 313.66 562.870089"></polygon>
                <polygon id="Path" fill="#122745" fill-rule="nonzero" points="383.35 562.870089 400.17 562.870089 400.17 589.300089 436.21 589.300089 436.21 562.870089 453.03 562.870089 453.03 632.070089 436.21 632.070089 436.21 605.640089 400.17 605.640089 400.17 632.070089 383.35 632.070089"></polygon>
                <polygon id="Path" fill="#3C4F71" fill-rule="nonzero" points="549.12 562.870089 549.12 579.210089 525.09 579.210089 525.09 632.070089 508.27 632.070089 508.27 579.210089 484.24 579.210089 484.24 562.870089"></polygon>
                <path d="M575.56,605.640089 C574.28,605.640089 573.16,606.120089 572.2,607.080089 C571.24,608.040089 570.76,609.240089 570.76,610.680089 C570.76,612.120089 571.24,613.320089 572.2,614.280089 C573.16,615.240089 574.28,615.720089 575.56,615.720089 L618.81,615.720089 L618.81,632.060089 L575.56,632.060089 C569.54,632.060089 564.43,629.960089 560.23,625.760089 C556.03,621.560089 553.93,616.530089 553.93,610.670089 C553.93,605.420089 555.47,601.010089 558.54,597.450089 C555.46,593.890089 553.93,589.490089 553.93,584.230089 C553.93,578.370089 556.03,573.340089 560.23,569.140089 C564.43,564.940089 569.54,562.840089 575.56,562.840089 L618.81,562.840089 L618.81,579.180089 L575.56,579.180089 C574.28,579.180089 573.16,579.660089 572.2,580.620089 C571.24,581.580089 570.76,582.780089 570.76,584.220089 C570.76,585.660089 571.24,586.860089 572.2,587.820089 C573.16,588.780089 574.28,589.260089 575.56,589.260089 L618.81,589.260089 L618.81,605.600089 L575.56,605.600089 L575.56,605.640089 Z" id="Path" fill="#3C4F71" fill-rule="nonzero"></path>
                <polygon id="Path" fill="#3C4F71" fill-rule="nonzero" points="643.89 597.370089 620.39 562.820089 639.95 562.820089 653.6 582.960089 667.34 562.870089 686.9 562.770089 663.4 597.420089 686.9 632.020089 667.34 632.070089 653.64 611.840089 639.94 632.070089 620.38 632.070089"></polygon>
                <path d="M720.93,562.870089 L758.17,562.870089 L758.17,632.070089 L741.35,632.070089 L741.35,579.210089 L720.93,579.210089 C716.7,579.210089 713.04,580.970089 709.95,584.500089 C706.86,588.020089 705.31,592.350089 705.31,597.480089 C705.31,602.610089 706.86,606.930089 709.95,610.460089 C713.04,613.990089 716.7,615.750089 720.93,615.750089 L738.95,615.750089 L738.95,632.090089 L720.93,632.090089 C711.93,632.090089 704.27,628.690089 697.96,621.900089 C691.65,615.110089 688.49,606.970089 688.49,597.490089 C688.49,588.010089 691.65,579.870089 697.96,573.080089 C704.27,566.260089 711.93,562.870089 720.93,562.870089 Z" id="Path" fill="#3C4F71" fill-rule="nonzero"></path>
                <path d="M762.98,584.250089 C762.98,578.390089 765.08,573.360089 769.28,569.160089 C773.48,564.960089 778.59,562.860089 784.61,562.860089 L827.86,562.860089 L827.86,579.200089 L784.61,579.200089 C783.33,579.200089 782.21,579.680089 781.25,580.640089 C780.29,581.600089 779.81,582.800089 779.81,584.240089 C779.81,585.680089 780.29,586.880089 781.25,587.840089 C782.21,588.800089 783.33,589.280089 784.61,589.280089 L806.24,589.280089 C812.26,589.280089 817.37,591.380089 821.57,595.580089 C825.77,599.780089 827.87,604.810089 827.87,610.670089 C827.87,616.530089 825.77,621.560089 821.57,625.760089 C817.37,629.960089 812.26,632.060089 806.24,632.060089 L762.99,632.060089 L762.99,615.730089 L806.24,615.730089 C807.52,615.730089 808.64,615.250089 809.6,614.290089 C810.56,613.330089 811.04,612.130089 811.04,610.690089 C811.04,609.250089 810.56,608.050089 809.6,607.090089 C808.64,606.130089 807.52,605.650089 806.24,605.650089 L784.61,605.650089 C778.59,605.650089 773.48,603.550089 769.28,599.350089 C765.08,595.150089 762.98,590.120089 762.98,584.250089 Z" id="Path" fill="#3C4F71" fill-rule="nonzero"></path>
            </g>
        </g>
    </g>
</svg>