<?xml version="1.0" encoding="UTF-8"?>
<svg width="426px" height="415px" viewBox="0 0 426 415" version="1.1" xmlns="http://www.w3.org/2000/svg" xmlns:xlink="http://www.w3.org/1999/xlink">
    <title>sts-logo-regular</title>
    <g id="client-portal" stroke="none" stroke-width="1" fill="none" fill-rule="evenodd">
        <g id="client-portal-desktop" transform="translate(-525.000000, -238.000000)" fill-rule="nonzero">
            <g id="sts-logo-regular" transform="translate(525.270000, 238.000000)">
                <path d="M157.05,258.580089 C156.32,258.140089 155.59,257.690089 154.87,257.190089 C143.93,249.690089 138.47,238.510089 139.09,224.850089 C139.17,223.030089 139.55,221.450089 139.83,220.300089 C139.9,220.010089 139.97,219.720089 140.03,219.430089 C140.8,215.670089 143.72,212.820089 147.35,212.040089 C149.06,209.940089 151.63,208.650089 154.41,208.560089 C156.11,206.990089 158.37,206.020089 160.86,206.020089 L180.21,206.020089 C179.3,205.410089 178.34,204.780089 177.32,204.130089 C160.1,193.280089 151.35,179.460089 151.35,163.080089 L151.35,149.830089 C151.35,125.620089 165.27,111.860089 190.64,110.800089 L190.64,95.4700891 C190.64,90.2200891 194.9,85.9600891 200.15,85.9600891 L233.3,85.9600891 C233.13,85.8600891 232.96,85.7600891 232.8,85.6500891 C227.04,81.6400891 221.5,77.3300891 215.65,73.4500891 C213.1,71.7600891 212.41,69.8600891 212.42,66.9500891 C212.53,45.7100891 212.44,24.4800891 212.52,3.24008913 C212.53,0.820089128 211.99,-0.00991087183 209.38,0 C178.85,0.100089128 148.31,0.0600891282 117.78,0.0700891282 C116.81,0.0700891282 115.84,0.160089128 114.49,0.230089128 C114.49,56.7300891 114.49,112.990089 114.49,169.580089 C76.17,169.580089 38.26,169.580089 0.34,169.580089 C0.23,169.810089 0.11,170.040089 0,170.260089 C0.59,170.680089 1.23,171.040089 1.76,171.530089 C19.53,187.880089 37.32,204.220089 55.02,220.640089 C56.28,221.800089 57.33,223.480089 57.83,225.120089 C61.85,238.370089 65.67,251.680089 69.69,264.930089 C70.09,266.240089 71.17,267.660089 72.33,268.370089 C79.66,272.800089 87.09,277.060089 94.5,281.360089 C101.1,285.190089 107.72,289.010089 114.57,292.980089 C115.32,291.940089 115.86,291.220089 116.37,290.480089 C123.53,280.030089 130.72,269.600089 137.81,259.110089 C138.89,257.510089 139.83,257.030089 141.78,257.640089 C148.08,259.610089 154.41,261.510089 160.75,263.360089 C159.28,261.810089 158.05,260.190089 157.05,258.580089 Z" id="Path" fill="#122745"></path>
                <path d="M423.97,199.670089 C418.23,190.790089 412.25,182.070089 406.51,173.200089 C405.6,171.790089 405.03,169.850089 405.08,168.170089 C405.6,148.310089 406.27,128.450089 406.9,108.590089 C406.93,107.640089 406.9,106.680089 406.9,105.360089 C403.28,105.360089 400.08,105.110089 396.92,105.410089 C389.25,106.130089 382.64,104.100089 377,98.7500891 C375.36,97.2000891 373.43,95.8800891 371.45,94.7900891 C370.12,94.0600891 368.41,93.4800891 366.96,93.6300891 C361.24,94.2400891 355.55,95.0000891 349.84,95.7300891 C369.65,101.190089 380.91,114.950089 380.77,133.720089 C380.74,138.600089 379.86,143.970089 378.21,149.230089 C374.92,159.730089 369.33,169.950089 361.62,179.590089 C355.38,187.380089 348.34,194.830089 340.69,201.730089 C339.68,202.640089 338.64,203.540089 337.61,204.440089 C339.22,208.880089 340.04,213.520089 340.04,218.320089 L340.04,236.130089 C340.04,261.400089 324.94,275.320089 297.52,275.320089 C297.51,275.320089 297.5,275.320089 297.5,275.320089 C282.68,275.280089 272.97,271.280089 266.61,265.670089 C265.27,269.300089 261.79,271.890089 257.7,271.890089 L234.69,271.890089 C230.35,271.890089 226.7,268.980089 225.56,265.010089 C218.31,271.850089 207.73,275.320089 193.96,275.320089 C193.95,275.320089 193.94,275.320089 193.94,275.320089 C186.59,275.300089 180.55,274.260089 175.56,272.590089 C195.27,307.340089 215.04,342.060089 234.85,376.760089 C235.53,377.940089 236.59,379.160089 237.77,379.760089 C259.51,390.880089 281.29,401.900089 303.06,412.940089 C303.91,413.370089 304.79,413.740089 305.88,414.240089 C305.88,412.820089 305.93,411.820089 305.87,410.840089 C304.64,389.640089 303.43,368.440089 302.12,347.250089 C301.98,345.020089 302.43,343.290089 303.84,341.500089 C310.94,332.480089 317.88,323.330089 324.98,314.310089 C326.12,312.860089 327.64,311.550089 329.26,310.650089 C357.51,294.920089 385.8,279.230089 414.12,263.630089 C416.1,262.540089 416.96,261.260089 417.27,259.060089 C419.83,240.840089 422.54,222.630089 425.07,204.410089 C425.28,202.890089 424.81,200.960089 423.97,199.670089 Z" id="Path" fill="#3C4F71"></path>
                <path d="M340.22,109.300089 C337.63,108.760089 334.94,108.680089 332.3,108.380089 C321.97,107.130089 311.87,108.030089 301.93,110.000089 C301.92,111.240089 301.94,112.470089 301.98,113.700089 C302.63,113.620089 303.26,113.560089 303.84,113.510089 C311.35,112.890089 318.84,113.180089 326.16,115.210089 C339.52,118.920089 344.97,129.490089 340.87,142.990089 C337.91,152.740089 332.25,160.920089 325.76,168.450089 C319.76,175.410089 313.29,182.150089 306.21,187.900089 C276.2,212.250089 243.38,229.410089 207.39,237.210089 C197.73,239.310089 187.97,240.170089 178.43,238.970089 C173.41,238.340089 168.41,236.420089 163.93,234.050089 C158.75,231.320089 155.72,226.350089 155.28,219.820089 C155.24,219.220089 154.92,218.650089 154.74,218.060089 C154.49,218.680089 154.15,219.290089 154.01,219.930089 C152.33,227.740089 154.93,239.140089 164.78,244.360089 C174.09,249.300089 184.12,250.560089 194.6,250.070089 C217.59,248.980089 239.61,241.720089 261.43,232.200089 C282.74,222.900089 302.41,210.190089 320.84,195.170089 C332.71,185.500089 343.61,174.700089 352.09,161.730089 C356.61,154.810089 360.27,147.530089 361.83,139.410089 C365.03,122.650089 355.62,112.520089 340.22,109.300089 Z" id="Path" fill="#122745"></path>
                <path d="M234.69,224.330089 C242.44,221.460089 250.12,218.120089 257.7,214.300089 L257.7,115.500089 L297.49,115.500089 L297.49,95.5000891 L200.14,95.5000891 L200.14,115.500089 L234.68,115.500089 L234.68,224.330089 L234.69,224.330089 Z" id="Path" fill="#3C4F71"></path>
                <path d="M320.88,195.290089 C319.07,196.750089 317.27,198.180089 315.47,199.570089 C317.3,198.190089 319.12,196.780089 320.94,195.350089 C320.91,195.330089 320.89,195.310089 320.88,195.290089 Z" id="Path" fill="#000000"></path>
                <path d="M182.4,196.120089 C196.76,205.230089 203.95,213.200089 203.95,220.030089 L203.95,233.120089 C204.85,232.950089 205.76,232.760089 206.68,232.570089 C213.49,231.090089 220.25,229.240089 226.97,227.040089 L226.97,218.320089 C226.97,205.630089 219.79,194.770089 205.42,185.710089 C191.05,176.600089 183.87,168.910089 183.87,162.620089 L183.87,149.850089 C183.87,143.510089 187.18,140.340089 193.79,140.340089 L193.95,140.340089 C200.62,140.340089 203.95,143.510089 203.95,149.850089 L203.95,168.800089 L226.96,168.800089 L226.96,149.850089 C226.96,130.120089 215.93,120.250089 193.87,120.250089 C171.86,120.250089 160.86,130.120089 160.86,149.850089 L160.86,163.100089 C160.86,176.060089 168.04,187.060089 182.4,196.120089 Z" id="Path" fill="#3C4F71"></path>
                <path d="M287.45,162.620089 L287.45,149.850089 C287.45,143.510089 290.76,140.340089 297.37,140.340089 L297.53,140.340089 C304.2,140.340089 307.53,143.510089 307.53,149.850089 L307.53,168.800089 L320.05,168.800089 C321.3,167.420089 322.56,166.010089 323.84,164.520089 C326.42,161.530089 328.63,158.690089 330.54,155.920089 L330.54,149.850089 C330.54,130.120089 319.51,120.250089 297.45,120.250089 C275.44,120.250089 264.44,130.120089 264.44,149.850089 L264.44,163.100089 C264.44,176.060089 271.62,187.060089 285.99,196.110089 C286.36,196.350089 286.71,196.580089 287.07,196.810089 C292.97,192.740089 298.81,188.360089 304.58,183.680089 C304.78,183.520089 304.98,183.340089 305.18,183.180089 C293.37,175.180089 287.45,168.320089 287.45,162.620089 Z" id="Path" fill="#3C4F71"></path>
                <path d="M234.69,250.220089 L234.69,262.370089 L257.7,262.370089 L257.7,242.120089 C249.8,245.380089 242.16,248.070089 234.69,250.220089 Z" id="Path" fill="#122745"></path>
                <path d="M306.73,215.960089 C307.26,217.360089 307.53,218.710089 307.53,220.020089 L307.53,236.120089 C307.53,242.460089 304.2,245.630089 297.53,245.630089 C290.81,245.630089 287.45,242.460089 287.45,236.120089 L287.45,227.610089 C283.31,229.990089 279.12,232.300089 274.87,234.360089 C271.37,236.070089 267.93,237.680089 264.54,239.190089 C265.66,256.870089 276.65,265.750089 297.53,265.800089 C319.54,265.800089 330.54,255.910089 330.54,236.120089 L330.54,218.310089 C330.54,212.480089 329.01,207.050089 325.97,201.990089 C319.83,206.950089 313.4,211.620089 306.73,215.960089 Z" id="Path" fill="#122745"></path>
                <path d="M221.1,253.610089 C210.36,255.830089 201.86,256.830089 193.52,256.830089 C193.52,256.830089 193.52,256.830089 193.52,256.830089 C187.43,256.830089 181.58,256.290089 175.63,255.180089 C173.11,254.800089 168.75,253.870089 164.06,251.680089 C168.79,261.060089 178.75,265.770089 193.95,265.810089 C208.28,265.810089 217.95,261.610089 222.94,253.220089 C222.33,253.340089 221.71,253.480089 221.1,253.610089 Z" id="Path" fill="#122745"></path>
                <path d="M164.72,227.980089 C169.6,230.560089 174.22,232.130089 178.47,232.660089 C180.23,232.880089 182.04,233.020089 183.88,233.110089 L183.88,215.550089 L160.86,215.550089 L160.86,224.930089 C161.93,226.150089 163.2,227.180089 164.72,227.980089 Z" id="Path" fill="#3C4F71"></path>
                <path d="M148.59,225.290089 C148.11,235.840089 152.1,243.770089 160.23,249.340089 C165.72,253.090089 171.89,254.850089 176.26,255.500089 C192.43,258.510089 206.59,256.900089 220.87,253.940089 C239.21,250.140089 256.83,243.340089 274.12,234.870089 C282.16,230.960089 289.97,226.220089 297.73,221.600089 C310.68,213.900089 322.99,204.880089 334.33,194.650089 C341.49,188.190089 348.16,181.170089 354.2,173.630089 C360.81,165.370089 366.01,156.350089 369.15,146.360089 C370.43,142.270089 371.25,137.860089 371.271125,133.630089 C371.4,116.670089 360.25,108.050089 346.07,104.520089 C343.2,103.800089 340.18,103.550089 337.2,103.230089 C337.2,103.230089 337.15,103.220089 337.04,103.220089 L337.01,103.220089 C336.72,103.210089 336.09,103.190089 335.21,103.170089 C332.53,103.120089 327.49,103.120089 322.41,103.660089 C323.49,103.680089 330.4,103.800089 336.58,104.650089 C339,104.980089 341.47,105.470089 343.28,106.060089 C344.35,106.300089 345.4,106.590089 346.44,106.920089 C360.72,111.480089 368.04,123.040089 366.14,138.030089 C364.92,147.550089 360.81,156.060089 355.65,164.110089 C347.59,176.690089 337.44,187.490089 325.92,196.880089 C298.12,219.530089 267.66,236.180089 234.89,246.600089 C218.53,251.810089 202.05,254.840089 185.36,253.900089 C178.28,253.490089 171.5,251.990089 165.19,248.880089 C155.83,244.260089 150.1,236.860089 150,225.170089 C149.99,223.890089 149.58,222.630089 149.35,221.350089 C149.08,222.660089 148.65,223.970089 148.59,225.290089 Z" id="Path" fill="#122745"></path>
            </g>
        </g>
    </g>
</svg>