<?xml version="1.0" encoding="UTF-8"?>
<svg width="64px" height="64px" viewBox="0 0 64 64" version="1.1" xmlns="http://www.w3.org/2000/svg" xmlns:xlink="http://www.w3.org/1999/xlink">
    <title>Artboard</title>
    <defs>
        <linearGradient x1="51.1573337%" y1="19.9899109%" x2="47.4607404%" y2="83.9096935%" id="linearGradient-1">
            <stop stop-color="#213350" offset="0%"></stop>
            <stop stop-color="#071328" offset="100%"></stop>
        </linearGradient>
    </defs>
    <g id="Artboard" stroke="none" stroke-width="1" fill="none" fill-rule="evenodd">
        <g id="64" transform="translate(-8.000000, -10.000000)">
            <path d="M51,72 C55.1107041,72.5872434 58,72 60,71 C64.8006463,68.5996768 69.393142,66.8310032 72,65 C76.8218669,61.6132202 76.0480766,20.486518 74,19 C71.4482692,17.1479239 56.8756622,24.3121867 48.9855703,21.3379948 C45.5492287,20.0426564 31,12 26,12 C23,12 21.9242535,12.5189366 20,13 C16,14 10.9873922,16.453421 8,18 C4.03600239,20.0521696 3.77752661,57.9978022 8,62 C9.6206153,63.536072 14.6253261,64.8042534 19.899988,65.2913876 C23.6732563,65.6398626 44.1248199,71.0178314 51,72 Z" id="Oval" fill="url(#linearGradient-1)"></path>
            <text id="S" font-family="OpenSans-BoldItalic, Open Sans" font-size="36" font-style="italic" font-weight="bold" fill="#BBBEC5">
                <tspan x="12.9277344" y="38">S</tspan>
            </text>
            <text id="T" font-family="OpenSans-BoldItalic, Open Sans" font-size="36" font-style="italic" font-weight="bold" fill="#BBBEC5">
                <tspan x="30.8925781" y="56">T</tspan>
            </text>
            <text id="S" font-family="OpenSans-BoldItalic, Open Sans" font-size="36" font-style="italic" font-weight="bold" fill="#BBBEC5">
                <tspan x="46.9277344" y="72">S</tspan>
            </text>
        </g>
    </g>
</svg>